<?xml version="1.0" encoding="utf-8"?>
<!-- Generator: Adobe Illustrator 27.5.0, SVG Export Plug-In . SVG Version: 6.00 Build 0)  -->
<svg version="1.1" xmlns="http://www.w3.org/2000/svg" xmlns:xlink="http://www.w3.org/1999/xlink" x="0px" y="0px"
	 viewBox="0 0 500 500" style="enable-background:new 0 0 500 500;" xml:space="preserve">
<g id="BACKGROUND_2">
	<g>
		<g id="XMLID_78_">
			<defs>
				<rect id="XMLID_79_" x="530.467" y="-1" width="750" height="500"/>
			</defs>
			<clipPath id="XMLID_00000036230028609625789480000005684225078712512148_">
				<use xlink:href="#XMLID_79_"  style="overflow:visible;"/>
			</clipPath>
			<g id="XMLID_80_" style="clip-path:url(#XMLID_00000036230028609625789480000005684225078712512148_);">
				<path id="XMLID_85_" style="fill:#6565A6;" d="M694.515,252.126C652.534,252.581,610.564,253,568.525,253
					c-20.528,0-41.055,0-61.583,0c-17.627,0-44.158,6.999-38.169-19.775c1.884-8.424,4.878-17.676,12.507-21.714
					c4.131-2.186,8.987-2.444,13.661-2.435c13.828,0.027,27.65,1.996,40.936,5.83c10.073-28.814,43.037-36.531,68.926-45.567
					c25.504-8.903,61.278-4.243,73.655,23.168c3.414,7.561,4.492,16.025,4.124,24.312c-0.143,3.22-0.19,7.101,2.513,8.856
					c1.784,1.158,4.116,0.875,6.194,0.423c11.619-2.53,21.967-8.898,32.8-13.801c10.833-4.903,23.191-8.401,34.529-4.815
					s20.179,16.696,15.455,27.606c12.52-5.403,35.661-8.881,48.998-4.828c6.236,1.895,18.967,20.742,21.407,20.742
					c-0.187,0-0.375,0-0.562,0C794.008,251,744.253,251.588,694.515,252.126z"/>
				<g id="XMLID_82_">
					<defs>
						<path id="XMLID_83_" d="M694.515,252.126C652.534,252.581,610.564,253,568.525,253c-20.528,0-41.055,0-61.583,0
							c-17.627,0-44.158,6.999-38.169-19.775c1.884-8.424,4.878-17.676,12.507-21.714c4.131-2.186,8.987-2.444,13.661-2.435
							c13.828,0.027,27.65,1.996,40.936,5.83c10.073-28.814,43.037-36.531,68.926-45.567c25.504-8.903,61.278-4.243,73.655,23.168
							c3.414,7.561,4.492,16.025,4.124,24.312c-0.143,3.22-0.19,7.101,2.513,8.856c1.784,1.158,4.116,0.875,6.194,0.423
							c11.619-2.53,21.967-8.898,32.8-13.801c10.833-4.903,23.191-8.401,34.529-4.815s20.179,16.696,15.455,27.606
							c12.52-5.403,35.661-8.881,48.998-4.828c6.236,1.895,18.967,20.742,21.407,20.742c-0.187,0-0.375,0-0.562,0
							C794.008,251,744.253,251.588,694.515,252.126z"/>
					</defs>
					<clipPath id="XMLID_00000077290510480556971360000001647101297677283230_">
						<use xlink:href="#XMLID_83_"  style="overflow:visible;"/>
					</clipPath>
				</g>
			</g>
		</g>
	</g>
</g>
<g id="BACKGROUND_1">
	<g>
		
			<linearGradient id="XMLID_00000147908341260800822680000006592608561251605388_" gradientUnits="userSpaceOnUse" x1="250.565" y1="-158.7024" x2="249.5289" y2="590.7808">
			<stop  offset="0.367" style="stop-color:#2C285B"/>
			<stop  offset="0.4998" style="stop-color:#32295F"/>
			<stop  offset="0.6855" style="stop-color:#442E6B"/>
			<stop  offset="0.9013" style="stop-color:#62357E"/>
			<stop  offset="1" style="stop-color:#723988"/>
		</linearGradient>
		<rect id="XMLID_1_" style="fill:url(#XMLID_00000147908341260800822680000006592608561251605388_);" width="500" height="500"/>
		<g>
			<defs>
				<rect id="XMLID_43_" width="500" height="500"/>
			</defs>
			<clipPath id="XMLID_00000172421200391734530980000014984702559953191829_">
				<use xlink:href="#XMLID_43_"  style="overflow:visible;"/>
			</clipPath>
			<g id="XMLID_38_" style="clip-path:url(#XMLID_00000172421200391734530980000014984702559953191829_);">
				<path id="XMLID_42_" style="fill:#6565A6;" d="M229.13,139.323c1.195-2.6-6.965-5.979-8.568-6.281
					c-1.085-0.205-7.195-0.801-6.432,1.574c-1.304-4.046-6.878-4.647-10.544-4.942c-4.429-0.357-8.969,0.456-12.932,2.489
					c-3.074,1.577-5.836,3.826-9.139,4.839c-6.066,1.86-12.676-0.787-18.93,0.284c-5.041,0.864-9.388,4.152-14.277,5.221
					c-5.733,1.254-11.589-0.294-17.32,1.752c-4.242,1.515-7.99,4.453-12.439,5.16c-3.557,0.565-7.165-0.365-10.764-0.498
					c-3.599-0.133-7.673,0.844-9.479,3.959c0.832-1.434,21.233-0.561,23.94-0.741c21.581-1.435,44.093-0.379,66.02-0.513
					c35.046-0.215,70.122,0.116,105.128-1.889c3.187-0.183,7.18-1.039,7.832-4.164c-11.609-3.697-24.09-4.624-36.117-2.68
					c-1.714,0.277-3.476,0.61-5.167,0.216c-3.265-0.76-5.313-3.937-8.122-5.766c-3.636-2.368-8.276-2.33-12.613-2.212
					C235.363,135.236,230.736,135.829,229.13,139.323z"/>
				<g id="XMLID_39_">
					<defs>
						<path id="XMLID_40_" d="M229.13,139.323c1.195-2.6-6.965-5.979-8.568-6.281c-1.085-0.205-7.195-0.801-6.432,1.574
							c-1.304-4.046-6.878-4.647-10.544-4.942c-4.429-0.357-8.969,0.456-12.932,2.489c-3.074,1.577-5.836,3.826-9.139,4.839
							c-6.066,1.86-12.676-0.787-18.93,0.284c-5.041,0.864-9.388,4.152-14.277,5.221c-5.733,1.254-11.589-0.294-17.32,1.752
							c-4.242,1.515-7.99,4.453-12.439,5.16c-3.557,0.565-7.165-0.365-10.764-0.498c-3.599-0.133-7.673,0.844-9.479,3.959
							c0.832-1.434,21.233-0.561,23.94-0.741c21.581-1.435,44.093-0.379,66.02-0.513c35.046-0.215,70.122,0.116,105.128-1.889
							c3.187-0.183,7.18-1.039,7.832-4.164c-11.609-3.697-24.09-4.624-36.117-2.68c-1.714,0.277-3.476,0.61-5.167,0.216
							c-3.265-0.76-5.313-3.937-8.122-5.766c-3.636-2.368-8.276-2.33-12.613-2.212C235.363,135.236,230.736,135.829,229.13,139.323z
							"/>
					</defs>
					<use xlink:href="#XMLID_40_"  style="overflow:visible;fill:#6565A6;"/>
					<clipPath id="XMLID_00000168115849247894510550000017359853702462356662_">
						<use xlink:href="#XMLID_40_"  style="overflow:visible;"/>
					</clipPath>
					<path id="XMLID_41_" style="clip-path:url(#XMLID_00000168115849247894510550000017359853702462356662_);fill:#B165C5;" d="
						M211.704,159.323c-13.875,1.741-27.749,3.848-41.749,4.22c-6.775,0.18-13.476-0.172-20.205-0.939
						c-5.392-0.615-8.749-3.956-13.646-5.843c-5.128-1.976-12.136-1.881-17.565-1.734c-5.847,0.158-11.772,1.226-17.491-0.003
						c0.415-1.612,2.392-2.163,4.043-2.373c2.661-0.338,5.338-0.528,8.013-0.717c7.169,0,14.491-1.025,21.644-1.531
						c3.058-0.216,5.674,0.119,8.607,0.257c3.294,0.154,6.642-1.875,9.5-3.249c3.508-1.687,7.692-3.086,11.184-1.364
						c1.251,0.617,2.294,1.591,3.528,2.242c4.709,2.484,7.145-0.545,11.131-2.414c0.986-0.462,2.074-0.658,3.155-0.791
						c0.76-0.094,1.535-0.159,2.288-0.02c0.729,0.134,1.409,0.455,2.109,0.698c6.08,2.115,10.808-3.166,16.88-3.113
						c5.006,0.044,9.813,1.895,14.358,3.994c1.154,0.533,2.349,1.096,3.62,1.096c1.265,0,2.453-0.556,3.633-1.011
						c6.186-2.385,13.348-2.112,19.334,0.739c0.988,0.471,2.026,1.023,3.113,0.884c1.003-0.128,1.825-0.821,2.699-1.33
						c3.03-1.765,6.803-1.361,10.28-0.902c9.093,1.201,18.185,2.401,27.278,3.602c3.827,0.505,7.921,1.132,10.744,3.766
						C269.278,153.774,240.387,155.723,211.704,159.323z"/>
				</g>
			</g>
			<g id="XMLID_35_" style="clip-path:url(#XMLID_00000172421200391734530980000014984702559953191829_);">
				<path id="XMLID_37_" style="opacity:0.41;fill:#6565A6;" d="M507.2,193.868c8.451,1.569,17.092,0.715,25.599,1.675
					c4.928,0.557,18.515,2.439,19.779,8.854c0.281,1.425-0.729,2.855-2.017,3.527s-2.792,0.756-4.244,0.807
					c-25.314,0.883-50.789,0.38-76.202,0.38c-42.174,0-84.347,0-126.521,0c-36.091,0-72.181,0-108.271,0
					c-2.721,0-27.758,1.34-26.957-2.852c1.147-6.009,40.349-7.561,46.241-7.645c17.048-0.235,35.084,1.626,50.242-6.178
					c10.488-5.4,20.096-15.436,31.775-13.772c3.932,0.56,9.473,1.588,10.553-2.234c0.378-1.338-0.103-2.749-0.215-4.135
					c-0.522-6.424,6.535-10.659,12.733-12.426c6.702-1.91,13.676-2.866,20.645-2.829c5.29,0.028,10.799,0.702,15.231,3.59
					c4.432,2.888,7.442,8.496,5.91,13.56c12.819-11.029,32.981-16.524,46.435-6.279c3.852,2.934,6.933,7.188,7.452,12.003
					c0.519,4.814-2.016,10.079-6.534,11.822c8.351-5.565,19.126-6.156,29.046-4.635C487.797,188.618,497.334,192.035,507.2,193.868z
					"/>
				<path id="XMLID_36_" style="opacity:0.43;fill:#B165C5;" d="M209.792,204.583c-0.808,0.516-1.312,1.073-1.427,1.676
					c-0.8,4.191,24.236,2.852,26.957,2.852h234.793c25.412,0,50.888,0.503,76.202-0.38c1.452-0.051,2.956-0.135,4.244-0.807
					c1.232-0.643,2.196-1.979,2.034-3.341c0.006,0.054-64.878-0.383-70.526-0.152c2.043-5.13-2.827-10.885-8.254-11.91
					c-5.426-1.025-10.886,1.177-15.97,3.333c1.259-8.984-7.129-17.107-16.082-18.569c-8.953-1.461-17.953,2.038-26.005,6.218
					c-9.025,4.685-21.232,18.123-31.662,16.983c-0.985-4.032-2.905-8.866-6.916-10.743c-2.008-0.939-4.298-1.002-6.514-1.048
					c-8.24-0.171-16.751-0.295-24.379,2.826c-5.669,2.32-10.488,6.293-15.85,9.255c-11.504,6.355-28.087,3.808-40.792,3.808
					c-14.045,0-28.09,0-42.135,0c-9.426,0-18.853,0-28.279,0C217.338,204.583,211.469,203.514,209.792,204.583z"/>
			</g>
			<g id="XMLID_28_" style="clip-path:url(#XMLID_00000172421200391734530980000014984702559953191829_);">
				<path id="XMLID_34_" style="fill:#6565A6;" d="M609.928,245.984c20.92-0.078,56.204,25.177,59.97,46.36
					c7.023,39.507-74.473,26.22-95.527,26.22c-33.665,0-67.331,0-100.996,0c-12.199,0-24.399,0.036-36.598,0.098
					c-106.567,0.538-212.991,1.032-319.567,1.032c-12.199,1.364-24.502,1.818-36.701,3.182c-2.502,0.28-5.119,0.546-7.464-0.371
					c-13.696-5.354,2.037-21.15,10.211-21.878c8.351-0.743,16.425,2.677,24.573,4.65c2.455,0.595,5.104,1.048,7.455,0.124
					c4.554-1.789,5.756-7.534,8.572-11.535c5.644-8.02,17.951-8.302,26.677-3.826c8.726,4.476,15.068,12.387,22.211,19.107
					c1.299,1.222,2.888,2.493,4.653,2.234c1.434-0.211,2.504-1.372,3.552-2.373c5.73-5.475,14.371-7.705,22.035-5.688
					c5.197,1.368,9.735,4.469,14.561,6.833c38.997,19.103,76.866-12.356,81.073-50.965c0.728-6.684,0.551-13.865,4.208-19.507
					c2.591-3.997,6.785-6.653,11.017-8.84c13.58-7.021,27.855-9.049,42.551-10.419c-4.975,0.464-4.989-21.362-4.042-24.398
					c2.373-7.611,8.402-12.814,15.194-16.513c8.15-4.438,48.634-13.996,53.462-2.113c-3.122-7.684,5.045-16.989,10.438-23.29
					c5.393-6.301,13.339-9.979,21.448-11.722c25.156-5.408,53.145,8.284,64.316,31.464c19.692-4.129,41.092,0.759,57.039,13.029
					c15.947,12.269,26.157,31.701,27.214,51.793c0.104,1.987,0.2,4.172,1.558,5.626
					C604.691,246.084,607.483,245.994,609.928,245.984z"/>
				<g id="XMLID_31_">
					<defs>
						<path id="XMLID_32_" d="M609.928,245.984c20.92-0.078,56.204,25.177,59.97,46.36c7.023,39.507-74.473,26.22-95.527,26.22
							c-33.665,0-67.331,0-100.996,0c-12.199,0-24.399,0.036-36.598,0.098c-106.567,0.538-212.991,1.032-319.567,1.032
							c-12.199,1.364-24.502,1.818-36.701,3.182c-2.502,0.28-5.119,0.546-7.464-0.371c-13.696-5.354,2.037-21.15,10.211-21.878
							c8.351-0.743,16.425,2.677,24.573,4.65c2.455,0.595,5.104,1.048,7.455,0.124c4.554-1.789,5.756-7.534,8.572-11.535
							c5.644-8.02,17.951-8.302,26.677-3.826c8.726,4.476,15.068,12.387,22.211,19.107c1.299,1.222,2.888,2.493,4.653,2.234
							c1.434-0.211,2.504-1.372,3.552-2.373c5.73-5.475,14.371-7.705,22.035-5.688c5.197,1.368,9.735,4.469,14.561,6.833
							c38.997,19.103,76.866-12.356,81.073-50.965c0.728-6.684,0.551-13.865,4.208-19.507c2.591-3.997,6.785-6.653,11.017-8.84
							c13.58-7.021,27.855-9.049,42.551-10.419c-4.975,0.464-4.989-21.362-4.042-24.398c2.373-7.611,8.402-12.814,15.194-16.513
							c8.15-4.438,48.634-13.996,53.462-2.113c-3.122-7.684,5.045-16.989,10.438-23.29c5.393-6.301,13.339-9.979,21.448-11.722
							c25.156-5.408,53.145,8.284,64.316,31.464c19.692-4.129,41.092,0.759,57.039,13.029
							c15.947,12.269,26.157,31.701,27.214,51.793c0.104,1.987,0.2,4.172,1.558,5.626
							C604.691,246.084,607.483,245.994,609.928,245.984z"/>
					</defs>
					<clipPath id="XMLID_00000103263564666514633560000013941034732544542881_">
						<use xlink:href="#XMLID_32_"  style="overflow:visible;"/>
					</clipPath>
					<path id="XMLID_33_" style="clip-path:url(#XMLID_00000103263564666514633560000013941034732544542881_);fill:#B165C5;" d="
						M652.664,299.53c21.11,2.887,23.1,11.144,30.076,28.64c-71.958,11.735-145.406-3.681-218.303-2.373
						c-63.63,1.142-125.963,6.51-189.363,9.703c-28.122,1.416-56.004,6.005-84.112,7.665c-35.83,2.116-71.941-0.562-107.067-7.939
						c-6.647-1.396-15.029-5.563-13.505-12.177c3.019-13.107,21.529-17.052,32.475-14.902c9.553,1.876,19.501,5.533,28.71,2.377
						c3.174-1.088,6.072-2.95,9.338-3.718c12.821-3.013,24.576,11.487,37.584,9.422c2.96-0.47,5.709-1.785,8.581-2.64
						c9.495-2.825,19.669-0.496,29.297,1.84c17.274,4.319,36.452,6.316,54.246,6.079c15.887-0.211,26.861-10.524,39.943-19.183
						c7.466-4.942,15.066-9.948,23.629-12.563c15.92-4.861,33.143-0.931,49.676-2.863c18.487-2.16,33.623-12.802,52.23-13.428
						c20.137-0.677,39.973,0.8,57.04,12.68c2.215,1.542,4.648,3.306,7.325,2.957c1.503-0.196,2.827-1.044,4.123-1.829
						c23.835-14.436,56.553-12.391,78.405,4.901c4.583,3.627,8.988,7.985,14.695,9.242c4.453,0.981,9.063-0.085,13.547-0.915
						C624.873,297.982,638.918,297.65,652.664,299.53z"/>
				</g>
				<path id="XMLID_30_" style="fill:#B165C5;" d="M413.794,247.089c2.504,3.504,6.816,8.207,11.707,7.957
					c1.631-0.083,3.116-0.907,4.582-1.626c6.137-3.011,12.89-3.784,19.666-3.249c4.044,0.319,10.303,3.678,12.104,7.54
					c0.356,0.764,0.612,1.635,0.377,2.445c-0.457,1.572-2.414,2.084-4.05,2.15c-3.857,0.155-7.675-0.685-11.512-1.098
					c-6.331-0.681-13.382-0.426-19.471,1.606c-5.853,1.953-12.053,3.049-17.925,5.206c-9.121,3.351-17.59,8.882-27.225,10.144
					c-4.484,0.587-8.704-0.823-12.986-1.91c-4.092-1.038-7.9-0.902-12.017-1.406c-7.798-0.956-15.043,0.133-22.082,3.63
					c-2.919,1.45-4.956,2.809-8.241,2.973c-3.441,0.172-8.172-1.346-4.733-5.489c3.248-3.913,7.245-7.428,11.718-9.867
					c9.127-4.976,20.414-5.807,30.172-2.221c0.832,0.306,1.691,0.648,2.575,0.57c1.518-0.133,2.635-1.433,3.55-2.651
					c3.311-4.412,6.316-9.128,10.42-12.814c5.017-4.505,11.579-7.257,18.308-7.678C404.338,240.951,410.526,242.516,413.794,247.089
					z"/>
			</g>
			<g id="XMLID_21_" style="clip-path:url(#XMLID_00000172421200391734530980000014984702559953191829_);">
				<path id="XMLID_27_" style="fill:#6565A6;" d="M387.137,96.064c-3.864-2.639-8.969-3.366-13.416-1.91
					c1.46-1.916-0.848-4.769-3.254-4.903c-2.405-0.133-4.575,1.289-6.779,2.262c-8.341,3.682-25.6-0.235-35.095-0.235
					c-16.74,0.038-33.48,0.797-50.22,0.835c-13.971,0.032-28.03,0.071-41.778,2.561c4.548-6.027-0.938-15.157-8.039-17.724
					c-7.101-2.567-14.931-1.081-22.479-1.252c-17.234-0.39-33.817-2.377-51.488-2.102c-20.461,0.319-40.923,0.637-61.384,0.955
					c-7.587,0.118-15.718,0.082-21.99-4.188c-3.38-2.301-5.891-5.632-8.694-8.609C48.091,46.429,25.71,40.691,4.689,41.826
					c-21.021,1.134-41.187,8.301-61.007,15.395c-0.175,15.026,1.993,27.973,2.296,42.997c1.084-0.622,2.067-1.541,3.151-2.163
					c6.588-3.779,26.487,0,33.798,0c27.678,0,55.356,0,83.034,0c107.271,0,214.033-1.129,321.353-1.129c0.008,0,0.016,0,0.023,0"/>
				<g id="XMLID_22_">
					<defs>
						<path id="XMLID_23_" d="M387.137,96.064c-3.864-2.639-8.969-3.366-13.416-1.91c1.46-1.916-0.848-4.769-3.254-4.903
							c-2.405-0.133-4.575,1.289-6.779,2.262c-8.341,3.682-25.6-0.235-35.095-0.235c-16.74,0.038-33.48,0.797-50.22,0.835
							c-13.971,0.032-28.03,0.071-41.778,2.561c4.548-6.027-0.938-15.157-8.039-17.724c-7.101-2.567-14.931-1.081-22.479-1.252
							c-17.234-0.39-33.817-2.377-51.488-2.102c-20.461,0.319-40.923,0.637-61.384,0.955c-7.587,0.118-15.718,0.082-21.99-4.188
							c-3.38-2.301-5.891-5.632-8.694-8.609C48.091,46.429,25.71,40.691,4.689,41.826c-21.021,1.134-41.187,8.301-61.007,15.395
							c-0.175,15.026,1.993,27.973,2.296,42.997c1.084-0.622,2.067-1.541,3.151-2.163c6.588-3.779,26.487,0,33.798,0
							c27.678,0,55.356,0,83.034,0c107.271,0,214.033-1.129,321.353-1.129c0.008,0,0.016,0,0.023,0"/>
					</defs>
					<clipPath id="XMLID_00000081638060446442515650000007355471784603364522_">
						<use xlink:href="#XMLID_23_"  style="overflow:visible;"/>
					</clipPath>
					<path id="XMLID_26_" style="clip-path:url(#XMLID_00000081638060446442515650000007355471784603364522_);fill:#B165C5;" d="
						M225.223,107.773H-59.469c-4.257,0-7.741-3.483-7.741-7.741v-3.618c0-4.257,3.483-7.741,7.741-7.741h284.692
						c4.257,0,7.741,3.483,7.741,7.741v3.618C232.964,104.289,229.48,107.773,225.223,107.773z"/>
					<path id="XMLID_25_" style="clip-path:url(#XMLID_00000081638060446442515650000007355471784603364522_);fill:#B165C5;" d="
						M386.502,101.745H223.489c-1.76,0-3.2-1.44-3.2-3.2l0,0c0-1.76,1.44-3.2,3.2-3.2h163.013c1.76,0,3.2,1.44,3.2,3.2l0,0
						C389.702,100.305,388.262,101.745,386.502,101.745z"/>
					<path id="XMLID_24_" style="clip-path:url(#XMLID_00000081638060446442515650000007355471784603364522_);fill:#B165C5;" d="
						M56.386,83.423c-9.965-3.282-20.429-6.453-30.704-4.482c-1.95,0.374-4.051,1.069-5.058,2.78
						C13.8,72.635,1.374,68.952-9.88,70.522c-8.924,1.245-17.616,5.75-22.963,12.902H56.386z"/>
				</g>
			</g>
			<g id="XMLID_18_" style="clip-path:url(#XMLID_00000172421200391734530980000014984702559953191829_);">
				<path id="XMLID_20_" style="fill:#6565A6;" d="M313.774,69.48c1.549-3.736,3.833-7.805,7.767-8.512
					c5.742-1.033,9.906,5.218,15.689,4.617c5.074-0.527,8.107-5.596,12.539-7.594c9.686-4.367,23.342-6.259,33.794-7.755
					c7.013-1.003,14.212-1.789,20.594-4.862c4.598-2.214,8.609-5.546,13.305-7.545c4.695-1.998,10.649-2.376,14.461,1.016
					c3.172,2.823,5.527,8.248,9.651,7.238c1.509-0.369,2.634-1.597,3.642-2.779c6.509-7.64,12.958-16.511,22.686-18.98
					c6.874-1.745,14.091,0.112,20.938,1.961c3.771,1.019,7.543,2.037,11.314,3.056c10.925,2.951,35.571,32.787,19.008,40.649
					c-7.206,3.421-25.266-0.104-33.21-0.104c-33.499,0-66.998,0-100.497,0c-23.949,0-47.899,0-71.848,0
					C313.662,69.751,313.717,69.616,313.774,69.48z"/>
				<path id="XMLID_19_" style="fill:#B165C5;" d="M343.358,66.091c-1.376,0.305-2.789,0.515-4.265,0.565
					c-11.299,0.389-20.076-9.826-25.32,2.823c-0.056,0.136-0.112,0.271-0.166,0.406h172.345c7.944,0,26.004,3.525,33.21,0.104
					c2.837-1.347,4.737-3.613,5.368-6.684c-8.231-2.295-15.045-8.974-23.996-11.064c-8.76-2.046-18.042-1.954-26.709,0.508
					c-7.35,2.088-14.194,5.738-21.584,7.682c-7.39,1.944-15.909,1.913-21.938-2.781c-2.244-1.747-4.03-4.054-6.399-5.629
					c-6.832-4.541-16.143-1.684-23.096,2.669c-5.43,3.399-11.19,9.322-17.761,10.232c-7.648,1.059-15.846-3.005-23.626-2.847
					C353.675,62.192,348.815,64.884,343.358,66.091z"/>
			</g>
			<g id="XMLID_12_" style="clip-path:url(#XMLID_00000172421200391734530980000014984702559953191829_);">
				<path id="XMLID_17_" style="fill:#6565A6;" d="M171.467,389.408c-0.891,0.017-4.322-3.304-5.617-3.781
					c-1.805-0.664-4.215-1.234-6.149-0.755c-2.051,0.508-4.009,1.936-6.073,1.487c-0.063-3.344,0.756-6.671,0.553-10.01
					c-0.415-6.847-6.912-10.473-12.536-12.95c-10.094-4.445-21.287-6.367-32.285-5.543c-4.038,0.303-8.157,0.962-12.091,0.001
					c-3.125-0.763-5.907-2.498-8.759-3.987c-10.543-5.504-22.727-7.815-34.552-6.552c-7.57,0.808-15.235,3.197-20.846,8.343
					c-5.611,5.146-8.723,13.444-6.277,20.654c-7.636-2.881-15.856-1.638-23.31,1.173c-2.818,1.063-20.503,8.3-19.201,11.754
					c0.367,0.973,1.46,1.517,2.5,1.554c9.65,0.346,20.139-0.805,29.984-0.805c15.293,0,30.585,0,45.878,0
					c18.057,0,36.114,0,54.171,0C135.044,389.991,153.3,389.75,171.467,389.408z"/>
				<g id="XMLID_13_">
					<defs>
						<path id="XMLID_14_" d="M171.467,389.408c-0.891,0.017-4.322-3.304-5.617-3.781c-1.805-0.664-4.215-1.234-6.149-0.755
							c-2.051,0.508-4.009,1.936-6.073,1.487c-0.063-3.344,0.756-6.671,0.553-10.01c-0.415-6.847-6.912-10.473-12.536-12.95
							c-10.094-4.445-21.287-6.367-32.285-5.543c-4.038,0.303-8.157,0.962-12.091,0.001c-3.125-0.763-5.907-2.498-8.759-3.987
							c-10.543-5.504-22.727-7.815-34.552-6.552c-7.57,0.808-15.235,3.197-20.846,8.343c-5.611,5.146-8.723,13.444-6.277,20.654
							c-7.636-2.881-15.856-1.638-23.31,1.173c-2.818,1.063-20.503,8.3-19.201,11.754c0.367,0.973,1.46,1.517,2.5,1.554
							c9.65,0.346,20.139-0.805,29.984-0.805c15.293,0,30.585,0,45.878,0c18.057,0,36.114,0,54.171,0
							C135.044,389.991,153.3,389.75,171.467,389.408z"/>
					</defs>
					<clipPath id="XMLID_00000182500689984101022340000003322106320532680350_">
						<use xlink:href="#XMLID_14_"  style="overflow:visible;"/>
					</clipPath>
					<path id="XMLID_16_" style="clip-path:url(#XMLID_00000182500689984101022340000003322106320532680350_);fill:#B165C5;" d="
						M166.097,404.018c3.562-0.227,6.747-2.615,6.051-6.625c-0.761-4.39-5.892-9.405-10.268-9.945
						c-4.554-0.562-8.774,2.666-13.359,0.982c-4.271-1.568-7.606-5.887-11.856-6.918c-6.144-1.491-12.046,2.627-18.173,0.851
						c-5.99-1.736-8.615-6.71-15.767-6.402c-5.085,0.219-9.925,2.133-14.652,4.021c-3.1-7.062-11.042-11.208-18.754-11.28
						c-4.54-0.042-8.988,1.152-13.089,3.047c-2.951,1.364-8.015,2.964-10.443,4.835c-3.119,2.403-6.239,4.806-9.358,7.209
						c-1.454,1.12-2.988,2.276-4.799,2.574c-1.971,0.325-3.937-0.416-5.874-0.904c-6.013-1.515-12.338-0.616-18.472,0.289
						c-0.962,0.142-1.951,0.293-2.792,0.781c-0.853,0.495-1.484,1.297-2.003,2.137c-6.536,10.575,7.933,10.556,14.854,10.921
						c15.366,0.81,30.712,2.653,46.076,3.636c30.764,1.968,61.63,2.809,92.437,1.357
						C159.271,404.425,162.685,404.236,166.097,404.018z"/>
					<path id="XMLID_15_" style="clip-path:url(#XMLID_00000182500689984101022340000003322106320532680350_);fill:#B165C5;" d="
						M88.22,372.482c0.179,0.2,0.367,0.361,0.564,0.47c0.234,0.13,0.528,0.064,0.775-0.039c1.447-0.604,2.478-1.89,3.951-2.435
						c1.755-0.65,3.722-0.276,5.545-0.284c2.764-0.011,5.967,0.273,8.622,1.077c0.248-0.263,0.258-0.687,0.109-1.016
						c-0.149-0.329-0.429-0.579-0.717-0.797c-1.253-0.944-3.633-1.062-5.083-0.497c1.047-5.761-5.456-1.927-7.726-2.846
						c-1.519-0.615-1.182-2.944-2.074-4.168c-2.264-3.11-5.638-1.197-8.651-0.693c-2.438,0.407-6.233-0.672-7.908,1.76
						c1.545-0.092,3.286,0.563,4.763,1.02c1.951,0.604,3.535,1.335,4.796,2.982C86.461,368.683,86.798,370.895,88.22,372.482z"/>
				</g>
			</g>
			<g id="XMLID_9_" style="clip-path:url(#XMLID_00000172421200391734530980000014984702559953191829_);">
				<path id="XMLID_11_" style="fill:#6565A6;" d="M501.632,375.688c-1.035-0.795-2.071-1.59-3.106-2.385
					c2.597,0.024,5.194,0.048,7.791,0.072c-0.293-4.651-0.126-16.363-4.505-19.445c-3.232-2.275-7.355,0.218-11.125,0.071
					c-13.475-0.528-24.753-7.776-38.866-5.203c-9.028,1.646-17.49,6.264-23.759,12.966c-3.117-4.22-8.959-5.625-14.162-4.951
					c-5.203,0.674-10,3.056-14.817,5.136c-20.22,8.732-42.581,11.48-64.606,11.48h177.709"/>
				<path id="XMLID_10_" style="fill:#B165C5;" d="M506.317,373.374c-0.215-3.412-0.185-10.618-1.88-15.435
					c-5.52,0.057-11.035,0.331-16.511,0.756c-7.711,0.599-15.391,1.54-23.018,2.818c-6.94,1.162-13.572,2.175-19.821,5.503
					c-5.823,3.101-10.629,4.7-16.999,2.181c-6.318-2.498-12.833-3.27-19.613-2.96c-11.642,0.532-22.838,4.098-34.042,7.193h124.259
					c-0.055-0.042-0.11-0.084-0.165-0.127C501.123,373.326,503.72,373.35,506.317,373.374z"/>
			</g>
			<g id="XMLID_3_" style="clip-path:url(#XMLID_00000172421200391734530980000014984702559953191829_);">
				<path id="XMLID_8_" style="fill:#6565A6;" d="M77.643,235.5c-31.61,0.342-63.211,0.658-94.864,0.658
					c-15.456,0-30.912,0-46.368,0c-13.272,0-33.249,5.27-28.739-14.89c1.419-6.343,3.673-13.309,9.418-16.35
					c3.11-1.646,6.767-1.84,10.286-1.833c10.411,0.021,20.819,1.503,30.822,4.389c7.584-21.695,32.405-27.506,51.897-34.31
					c19.203-6.703,46.139-3.194,55.458,17.444c2.57,5.693,3.382,12.066,3.105,18.306c-0.108,2.424-0.143,5.347,1.892,6.668
					c1.343,0.872,3.099,0.659,4.664,0.318c8.748-1.905,16.54-6.7,24.697-10.392c8.157-3.692,17.461-6.326,25.998-3.626
					c8.537,2.7,15.194,12.571,11.637,20.785c9.427-4.068,26.851-6.686,36.893-3.635c4.696,1.427,14.281,15.617,16.118,15.617
					c-0.141,0-0.282,0-0.423,0C152.555,234.652,115.092,235.094,77.643,235.5z"/>
				<g id="XMLID_5_">
					<defs>
						<path id="XMLID_6_" d="M77.643,235.5c-31.61,0.342-63.211,0.658-94.864,0.658c-15.456,0-30.912,0-46.368,0
							c-13.272,0-33.249,5.27-28.739-14.89c1.419-6.343,3.673-13.309,9.418-16.35c3.11-1.646,6.767-1.84,10.286-1.833
							c10.411,0.021,20.819,1.503,30.822,4.389c7.584-21.695,32.405-27.506,51.897-34.31c19.203-6.703,46.139-3.194,55.458,17.444
							c2.57,5.693,3.382,12.066,3.105,18.306c-0.108,2.424-0.143,5.347,1.892,6.668c1.343,0.872,3.099,0.659,4.664,0.318
							c8.748-1.905,16.54-6.7,24.697-10.392c8.157-3.692,17.461-6.326,25.998-3.626c8.537,2.7,15.194,12.571,11.637,20.785
							c9.427-4.068,26.851-6.686,36.893-3.635c4.696,1.427,14.281,15.617,16.118,15.617c-0.141,0-0.282,0-0.423,0
							C152.555,234.652,115.092,235.094,77.643,235.5z"/>
					</defs>
					<clipPath id="XMLID_00000086661839151336401560000003531571437766299577_">
						<use xlink:href="#XMLID_6_"  style="overflow:visible;"/>
					</clipPath>
					<path id="XMLID_7_" style="clip-path:url(#XMLID_00000086661839151336401560000003531571437766299577_);fill:#B165C5;" d="
						M164.269,228.979c-18.916-3.595-38.553-3.357-57.376,0.695c2.646-3.749-0.275-9.341-4.509-11.108
						c-4.234-1.767-9.052-0.876-13.548,0.041c-10.843,2.213-21.687,4.426-32.53,6.639c-0.95,0.194-1.93,0.388-2.881,0.2
						c-2.25-0.446-3.514-2.763-4.691-4.732c-23.008-38.508-58.399-10.993-84.683,6.176c-7.35,4.801-15.06,9.046-23.031,12.724
						h188.611c16.166,0,32.307,1.273,48.457,1.969C179.712,234.765,171.154,230.287,164.269,228.979z"/>
				</g>
				<path id="XMLID_4_" style="fill:#B165C5;" d="M43.249,204.497c2.919,3.327,5.368,7.153,7.692,10.714
					c0.416,0.637,1.035,1.351,1.779,1.188c0.551-0.121,0.876-0.681,1.096-1.201c1.525-3.618,1.062-8.004-1.187-11.223
					c-2.248-3.219-6.207-5.163-10.129-4.976c0.383-3.253-0.091-6.603-1.363-9.622c-0.751-1.783-1.877-3.543-3.636-4.35
					c-1.855-0.851-4.096-0.389-5.688,0.809c-2.046,1.54-1.603,4.034-3.085,5.646c-1.6,1.741-3.584,0.481-5.728,0.156
					c-2.894-0.439-5.854-0.454-8.751-0.035c-0.462,0.067-0.947,0.156-1.302,0.459c-0.355,0.303-0.507,0.893-0.195,1.241
					c0.177,0.198,0.452,0.27,0.711,0.33c2.574,0.595,5.219,0.886,7.861,0.863c4.549-0.039,7.784,0.809,11.969,2.502
					C37.242,198.596,40.46,201.318,43.249,204.497z"/>
			</g>
			
				<rect id="XMLID_2_" x="-45.877" y="32.909" style="clip-path:url(#XMLID_00000172421200391734530980000014984702559953191829_);fill:none;" width="564.709" height="376.473"/>
		</g>
	</g>
</g>
<g id="DESIGNED_BY_FREEPIK_1_">
	<g id="XMLID_76_">
		<g id="XMLID_929_">
			<path id="XMLID_958_" style="fill:#FFFFFF;" d="M181.087,466.63c-0.246,0-0.435,0.085-0.567,0.255
				c-0.133,0.17-0.199,0.421-0.199,0.753v2.392c-0.305-0.331-0.617-0.579-0.937-0.739c-0.321-0.159-0.715-0.24-1.181-0.24
				c-0.807,0-1.458,0.283-1.953,0.848c-0.494,0.566-0.742,1.356-0.742,2.369c0,0.478,0.063,0.923,0.187,1.335
				c0.124,0.412,0.307,0.77,0.549,1.074c0.241,0.304,0.527,0.539,0.857,0.704c0.33,0.164,0.69,0.246,1.078,0.246
				c0.293,0,0.563-0.04,0.809-0.122c0.248-0.081,0.477-0.2,0.689-0.356c0.212-0.156,0.427-0.359,0.644-0.608v0.16
				c0,0.297,0.072,0.525,0.217,0.685c0.145,0.161,0.328,0.24,0.549,0.24c0.226,0,0.409-0.078,0.552-0.231
				c0.143-0.154,0.214-0.386,0.214-0.694v-7.146c0-0.305-0.066-0.534-0.199-0.691C181.521,466.709,181.332,466.63,181.087,466.63z
				 M180.021,473.471c-0.14,0.306-0.328,0.533-0.563,0.682c-0.236,0.149-0.496,0.223-0.781,0.223c-0.281,0-0.54-0.079-0.777-0.236
				c-0.237-0.155-0.424-0.388-0.561-0.696c-0.136-0.309-0.204-0.682-0.204-1.122c0-0.416,0.063-0.78,0.193-1.095
				c0.128-0.315,0.309-0.556,0.543-0.724c0.233-0.168,0.499-0.253,0.795-0.253c0.285,0,0.547,0.082,0.786,0.246
				c0.239,0.165,0.429,0.402,0.569,0.712c0.141,0.311,0.211,0.682,0.211,1.114C180.232,472.78,180.162,473.164,180.021,473.471z"/>
			<path id="XMLID_954_" style="fill:#FFFFFF;" d="M188.452,472.551c0.233-0.122,0.35-0.385,0.35-0.793
				c0-0.438-0.113-0.87-0.339-1.294c-0.225-0.423-0.564-0.769-1.018-1.035c-0.453-0.268-0.996-0.4-1.628-0.4
				c-0.487,0-0.93,0.078-1.33,0.234c-0.4,0.157-0.736,0.381-1.009,0.674c-0.273,0.293-0.48,0.644-0.623,1.054
				c-0.143,0.409-0.214,0.853-0.214,1.332c0,1.017,0.289,1.822,0.867,2.415c0.577,0.592,1.387,0.89,2.428,0.89
				c0.455,0,0.858-0.059,1.207-0.178c0.352-0.12,0.641-0.268,0.873-0.448c0.231-0.18,0.404-0.368,0.519-0.564
				c0.115-0.197,0.172-0.367,0.172-0.514c0-0.166-0.052-0.294-0.155-0.386c-0.102-0.09-0.237-0.137-0.403-0.137
				c-0.154,0-0.273,0.035-0.356,0.107c-0.202,0.19-0.366,0.34-0.492,0.451c-0.126,0.111-0.265,0.216-0.416,0.312
				c-0.15,0.098-0.305,0.167-0.466,0.214c-0.16,0.045-0.337,0.067-0.531,0.067c-0.289,0-0.553-0.07-0.792-0.213
				c-0.239-0.142-0.432-0.354-0.576-0.635c-0.145-0.281-0.218-0.605-0.222-0.973h3.168
				C187.89,472.732,188.219,472.671,188.452,472.551z M184.297,471.812c0.055-0.546,0.212-0.959,0.472-1.238
				c0.259-0.279,0.59-0.418,0.994-0.418c0.424,0,0.764,0.137,1.024,0.412c0.259,0.275,0.409,0.69,0.448,1.244H184.297z"/>
			<path id="XMLID_952_" style="fill:#FFFFFF;" d="M193.879,472.114c-0.319-0.17-0.729-0.316-1.231-0.439
				c-0.425-0.103-0.756-0.19-0.997-0.261c-0.242-0.07-0.434-0.161-0.577-0.27c-0.142-0.109-0.213-0.248-0.213-0.419
				c0-0.186,0.096-0.341,0.29-0.465c0.194-0.126,0.437-0.187,0.73-0.187c0.286,0,0.511,0.047,0.677,0.142
				c0.166,0.095,0.31,0.222,0.433,0.38c0.151,0.19,0.284,0.332,0.401,0.427c0.116,0.095,0.258,0.143,0.424,0.143
				c0.231,0,0.408-0.06,0.532-0.178c0.124-0.119,0.186-0.272,0.186-0.457c0-0.171-0.058-0.345-0.175-0.523
				c-0.116-0.178-0.286-0.34-0.51-0.486c-0.223-0.146-0.502-0.264-0.837-0.35c-0.333-0.088-0.71-0.131-1.13-0.131
				c-0.535,0-0.99,0.085-1.367,0.259c-0.378,0.172-0.665,0.403-0.859,0.691c-0.194,0.289-0.291,0.596-0.291,0.92
				c0,0.364,0.105,0.671,0.315,0.92c0.21,0.249,0.489,0.45,0.84,0.602c0.35,0.153,0.804,0.298,1.362,0.436
				c0.494,0.12,0.849,0.244,1.065,0.375c0.216,0.131,0.323,0.338,0.323,0.622c0,0.187-0.104,0.352-0.311,0.497
				c-0.208,0.144-0.474,0.216-0.798,0.216c-0.4,0-0.715-0.071-0.947-0.213c-0.231-0.143-0.431-0.358-0.597-0.647
				c-0.082-0.15-0.17-0.267-0.261-0.35c-0.091-0.082-0.221-0.124-0.391-0.124c-0.194,0-0.355,0.064-0.481,0.19
				c-0.128,0.126-0.19,0.278-0.19,0.456c0,0.27,0.099,0.537,0.297,0.805c0.198,0.266,0.505,0.489,0.92,0.667
				c0.415,0.178,0.914,0.267,1.495,0.267c0.61,0,1.127-0.082,1.552-0.246c0.425-0.164,0.747-0.406,0.964-0.724
				c0.218-0.319,0.326-0.702,0.326-1.149c0-0.297-0.082-0.56-0.246-0.792C194.438,472.485,194.197,472.284,193.879,472.114z"/>
			<path id="XMLID_950_" style="fill:#FFFFFF;" d="M196.486,469.04c-0.237,0-0.43,0.081-0.579,0.243
				c-0.149,0.162-0.222,0.404-0.222,0.724v4.635c0,0.317,0.073,0.56,0.222,0.73c0.148,0.17,0.341,0.255,0.579,0.255
				c0.238,0,0.433-0.083,0.588-0.249c0.154-0.166,0.231-0.412,0.231-0.737v-4.682c0-0.289-0.077-0.514-0.231-0.677
				C196.919,469.121,196.724,469.04,196.486,469.04z"/>
			<path id="XMLID_949_" style="fill:#FFFFFF;" d="M196.504,466.701c-0.217,0-0.409,0.073-0.573,0.223
				c-0.164,0.149-0.246,0.337-0.246,0.567c0,0.254,0.08,0.45,0.24,0.588c0.16,0.138,0.353,0.208,0.579,0.208
				c0.217,0,0.405-0.071,0.563-0.211c0.158-0.14,0.238-0.335,0.238-0.585c0-0.258-0.081-0.453-0.243-0.588
				C196.9,466.768,196.714,466.701,196.504,466.701z"/>
			<path id="XMLID_945_" style="fill:#FFFFFF;" d="M203.626,469.04c-0.217,0-0.395,0.077-0.535,0.231
				c-0.139,0.155-0.208,0.372-0.208,0.653v0.22c-0.289-0.376-0.602-0.652-0.937-0.829c-0.337-0.175-0.735-0.264-1.194-0.264
				c-0.384,0-0.736,0.068-1.056,0.204c-0.32,0.137-0.604,0.34-0.849,0.609c-0.245,0.269-0.433,0.599-0.566,0.992
				c-0.133,0.391-0.199,0.83-0.199,1.317c0,0.653,0.109,1.228,0.327,1.727c0.217,0.499,0.529,0.886,0.934,1.163
				c0.406,0.277,0.88,0.416,1.422,0.416c0.45,0,0.84-0.091,1.166-0.273c0.327-0.182,0.615-0.447,0.864-0.796
				c-0.008,0.531-0.02,0.915-0.035,1.155c-0.016,0.24-0.07,0.464-0.164,0.673c-0.093,0.21-0.255,0.374-0.486,0.49
				c-0.231,0.117-0.557,0.175-0.977,0.175c-0.205,0-0.388-0.02-0.546-0.056c-0.159-0.038-0.294-0.095-0.406-0.171
				c-0.112-0.078-0.216-0.17-0.309-0.28c-0.093-0.109-0.183-0.217-0.27-0.324c-0.178-0.209-0.386-0.314-0.624-0.314
				c-0.189,0-0.352,0.062-0.486,0.187c-0.135,0.124-0.202,0.285-0.202,0.483c0,0.262,0.119,0.516,0.356,0.763
				c0.238,0.247,0.576,0.449,1.014,0.605c0.439,0.156,0.938,0.234,1.496,0.234c0.609,0,1.119-0.061,1.528-0.184
				c0.41-0.122,0.741-0.311,0.994-0.563c0.253-0.254,0.438-0.574,0.552-0.961c0.115-0.389,0.173-0.851,0.173-1.389v-4.706
				c0-0.384-0.051-0.678-0.155-0.882C204.146,469.142,203.938,469.04,203.626,469.04z M202.599,473.405
				c-0.151,0.29-0.345,0.508-0.586,0.653c-0.239,0.144-0.493,0.217-0.762,0.217c-0.455,0-0.826-0.168-1.113-0.505
				c-0.287-0.336-0.43-0.834-0.43-1.49c0-0.649,0.139-1.15,0.418-1.502s0.649-0.529,1.113-0.529c0.475,0,0.857,0.184,1.148,0.553
				c0.291,0.367,0.436,0.882,0.436,1.543C202.825,472.762,202.749,473.114,202.599,473.405z"/>
			<path id="XMLID_944_" style="fill:#FFFFFF;" d="M210.978,470.108c-0.165-0.339-0.417-0.602-0.753-0.788
				c-0.337-0.186-0.718-0.28-1.146-0.28c-0.439,0-0.828,0.088-1.166,0.264c-0.339,0.176-0.65,0.452-0.935,0.828v-0.196
				c0-0.193-0.034-0.358-0.104-0.493c-0.07-0.134-0.162-0.234-0.276-0.302c-0.115-0.068-0.244-0.101-0.387-0.101
				c-0.233,0-0.417,0.076-0.552,0.228c-0.134,0.152-0.201,0.383-0.201,0.692v4.682c0,0.317,0.076,0.56,0.226,0.73
				c0.15,0.17,0.342,0.255,0.576,0.255c0.241,0,0.438-0.082,0.59-0.246c0.152-0.164,0.228-0.411,0.228-0.74v-2.03
				c0-0.661,0.04-1.111,0.119-1.353c0.11-0.3,0.284-0.537,0.522-0.71c0.237-0.173,0.5-0.258,0.789-0.258
				c0.444,0,0.74,0.142,0.888,0.425c0.148,0.283,0.223,0.691,0.223,1.225v2.7c0,0.317,0.074,0.56,0.226,0.73
				c0.15,0.17,0.345,0.255,0.587,0.255c0.238,0,0.431-0.083,0.579-0.249c0.149-0.166,0.223-0.412,0.223-0.737v-3.015
				c0-0.356-0.017-0.648-0.048-0.878C211.155,470.52,211.085,470.306,210.978,470.108z"/>
			<path id="XMLID_939_" style="fill:#FFFFFF;" d="M217.821,472.551c0.234-0.122,0.35-0.385,0.35-0.793
				c0-0.438-0.114-0.87-0.338-1.294c-0.226-0.423-0.565-0.769-1.019-1.035c-0.453-0.268-0.995-0.4-1.628-0.4
				c-0.487,0-0.93,0.078-1.33,0.234c-0.4,0.157-0.736,0.381-1.009,0.674c-0.273,0.293-0.481,0.644-0.624,1.054
				c-0.142,0.409-0.214,0.853-0.214,1.332c0,1.017,0.289,1.822,0.867,2.415c0.578,0.592,1.387,0.89,2.427,0.89
				c0.455,0,0.858-0.059,1.208-0.178c0.35-0.12,0.64-0.268,0.871-0.448c0.232-0.18,0.405-0.368,0.52-0.564
				c0.115-0.197,0.172-0.367,0.172-0.514c0-0.166-0.051-0.294-0.154-0.386c-0.103-0.09-0.238-0.137-0.404-0.137
				c-0.154,0-0.273,0.035-0.356,0.107c-0.201,0.19-0.366,0.34-0.492,0.451c-0.128,0.111-0.266,0.216-0.416,0.312
				c-0.151,0.098-0.306,0.167-0.466,0.214c-0.161,0.045-0.338,0.067-0.532,0.067c-0.289,0-0.553-0.07-0.792-0.213
				c-0.239-0.142-0.431-0.354-0.576-0.635c-0.145-0.281-0.218-0.605-0.223-0.973h3.169
				C217.26,472.732,217.588,472.671,217.821,472.551z M213.667,471.812c0.056-0.546,0.212-0.959,0.471-1.238
				c0.259-0.279,0.591-0.418,0.995-0.418c0.424,0,0.765,0.137,1.024,0.412c0.259,0.275,0.409,0.69,0.448,1.244H213.667z"/>
			<path id="XMLID_936_" style="fill:#FFFFFF;" d="M224.207,466.63c-0.245,0-0.434,0.085-0.567,0.255
				c-0.132,0.17-0.199,0.421-0.199,0.753v2.392c-0.304-0.331-0.616-0.579-0.937-0.739c-0.32-0.159-0.714-0.24-1.181-0.24
				c-0.807,0-1.458,0.283-1.953,0.848c-0.495,0.566-0.741,1.356-0.741,2.369c0,0.478,0.062,0.923,0.187,1.335
				c0.124,0.412,0.308,0.77,0.549,1.074c0.241,0.304,0.527,0.539,0.857,0.704c0.33,0.164,0.689,0.246,1.077,0.246
				c0.293,0,0.563-0.04,0.81-0.122c0.247-0.081,0.476-0.2,0.688-0.356c0.211-0.156,0.426-0.359,0.643-0.608v0.16
				c0,0.297,0.073,0.525,0.217,0.685c0.145,0.161,0.328,0.24,0.549,0.24c0.226,0,0.41-0.078,0.552-0.231
				c0.143-0.154,0.214-0.386,0.214-0.694v-7.146c0-0.305-0.066-0.534-0.199-0.691C224.641,466.709,224.452,466.63,224.207,466.63z
				 M223.141,473.471c-0.14,0.306-0.328,0.533-0.564,0.682c-0.236,0.149-0.495,0.223-0.781,0.223c-0.281,0-0.539-0.079-0.776-0.236
				c-0.238-0.155-0.425-0.388-0.561-0.696c-0.137-0.309-0.205-0.682-0.205-1.122c0-0.416,0.064-0.78,0.193-1.095
				c0.129-0.315,0.31-0.556,0.543-0.724c0.233-0.168,0.499-0.253,0.795-0.253c0.285,0,0.547,0.082,0.787,0.246
				c0.239,0.165,0.43,0.402,0.57,0.712c0.14,0.311,0.211,0.682,0.211,1.114C223.352,472.78,223.282,473.164,223.141,473.471z"/>
			<path id="XMLID_933_" style="fill:#FFFFFF;" d="M233.586,469.434c-0.407-0.254-0.878-0.382-1.416-0.382
				c-0.467,0-0.859,0.084-1.175,0.252c-0.317,0.168-0.627,0.411-0.932,0.727v-2.475c0-0.297-0.068-0.524-0.202-0.685
				c-0.134-0.16-0.326-0.24-0.575-0.24c-0.237,0-0.423,0.084-0.555,0.252c-0.132,0.168-0.198,0.416-0.198,0.744v7.075
				c0,0.305,0.068,0.535,0.205,0.692c0.136,0.156,0.319,0.234,0.549,0.234c0.226,0,0.412-0.078,0.558-0.234
				c0.146-0.157,0.22-0.388,0.22-0.692v-0.16c0.178,0.205,0.322,0.361,0.43,0.463c0.109,0.103,0.241,0.203,0.395,0.3
				c0.154,0.098,0.341,0.175,0.561,0.234c0.22,0.06,0.454,0.089,0.704,0.089c0.407,0,0.781-0.082,1.119-0.246
				c0.338-0.164,0.626-0.397,0.864-0.698c0.237-0.3,0.418-0.656,0.543-1.065c0.124-0.41,0.187-0.859,0.187-1.35
				c0-0.665-0.112-1.241-0.336-1.725C234.305,470.06,233.991,469.69,233.586,469.434z M232.796,473.845
				c-0.295,0.355-0.646,0.531-1.053,0.531c-0.479,0-0.866-0.174-1.161-0.52c-0.295-0.346-0.442-0.841-0.442-1.487
				c0-0.439,0.069-0.818,0.208-1.136c0.138-0.319,0.328-0.562,0.57-0.73c0.24-0.168,0.516-0.253,0.825-0.253
				c0.3,0,0.564,0.085,0.79,0.253c0.225,0.168,0.399,0.406,0.522,0.715c0.123,0.308,0.184,0.677,0.184,1.104
				C233.238,472.983,233.09,473.49,232.796,473.845z"/>
			<path id="XMLID_931_" style="fill:#FFFFFF;" d="M240.529,469.138c-0.112-0.066-0.229-0.098-0.353-0.098
				c-0.171,0-0.303,0.03-0.395,0.09c-0.093,0.058-0.181,0.173-0.264,0.344c-0.083,0.17-0.176,0.406-0.279,0.706l-1.3,3.71
				l-1.371-3.988c-0.091-0.277-0.195-0.489-0.314-0.638c-0.119-0.148-0.295-0.223-0.528-0.223c-0.135,0-0.264,0.035-0.389,0.107
				c-0.124,0.071-0.222,0.166-0.294,0.285c-0.071,0.118-0.107,0.246-0.107,0.385c0,0.13,0.062,0.341,0.184,0.629l1.994,5.022
				l-0.148,0.363c-0.111,0.265-0.209,0.466-0.294,0.601c-0.085,0.138-0.181,0.234-0.287,0.289c-0.107,0.056-0.254,0.084-0.44,0.084
				c-0.074,0-0.163-0.012-0.266-0.035c-0.083-0.024-0.168-0.037-0.256-0.037c-0.221,0-0.388,0.051-0.5,0.152
				c-0.113,0.101-0.17,0.245-0.17,0.43c0,0.273,0.118,0.461,0.356,0.565c0.237,0.102,0.593,0.154,1.068,0.154
				c0.487,0,0.873-0.074,1.161-0.223c0.287-0.148,0.517-0.361,0.691-0.638c0.175-0.277,0.353-0.659,0.535-1.145l2.113-5.532
				c0.051-0.142,0.095-0.283,0.13-0.421c0.037-0.139,0.061-0.246,0.078-0.321c0-0.123-0.032-0.239-0.093-0.35
				C240.729,469.291,240.642,469.203,240.529,469.138z"/>
		</g>
		<g id="XMLID_365_">
			<g id="XMLID_380_">
				<path id="XMLID_928_" style="fill:#FFFFFF;" d="M262.93,466.626c-0.533,0-0.954,0.069-1.26,0.204
					c-0.307,0.137-0.527,0.354-0.654,0.652c-0.129,0.301-0.191,0.702-0.191,1.211v0.487h-0.387c-0.543,0-0.815,0.192-0.815,0.582
					c0,0.174,0.066,0.316,0.197,0.423c0.132,0.111,0.315,0.164,0.558,0.164h0.447v4.294c0,0.319,0.074,0.563,0.227,0.73
					c0.154,0.17,0.344,0.254,0.574,0.254c0.243,0,0.438-0.084,0.589-0.254c0.156-0.167,0.231-0.411,0.231-0.73v-4.294h0.395
					c0.29,0,0.517-0.035,0.68-0.108c0.166-0.071,0.245-0.24,0.245-0.502c0-0.374-0.306-0.56-0.926-0.56h-0.395v-0.386
					c0-0.322,0.043-0.568,0.122-0.74c0.087-0.172,0.273-0.259,0.566-0.259c0.107,0,0.241,0.014,0.389,0.034
					c0.156,0.026,0.267,0.038,0.329,0.038c0.134,0,0.252-0.054,0.348-0.16c0.101-0.108,0.15-0.236,0.15-0.384
					C264.35,466.856,263.879,466.626,262.93,466.626z"/>
				<path id="XMLID_926_" style="fill:#FFFFFF;" d="M268.089,469.292c-0.32-0.171-0.647-0.255-0.99-0.255
					c-0.342,0-0.611,0.084-0.818,0.255c-0.203,0.171-0.4,0.421-0.592,0.755c-0.014-0.334-0.08-0.584-0.198-0.755
					c-0.119-0.171-0.313-0.255-0.583-0.255c-0.525,0-0.788,0.364-0.788,1.093v4.513c0,0.323,0.078,0.569,0.225,0.733
					c0.15,0.168,0.341,0.25,0.579,0.25c0.237,0,0.432-0.081,0.586-0.247c0.151-0.163,0.234-0.41,0.234-0.737v-1.355
					c0-0.486,0.014-0.899,0.044-1.239c0.034-0.336,0.09-0.63,0.17-0.878c0.083-0.243,0.201-0.425,0.353-0.553
					c0.15-0.122,0.345-0.186,0.582-0.186c0.171,0,0.373,0.037,0.602,0.108c0.226,0.073,0.371,0.112,0.433,0.112
					c0.157,0,0.304-0.064,0.441-0.195c0.135-0.126,0.204-0.292,0.204-0.488C268.571,469.69,268.411,469.463,268.089,469.292z"/>
				<path id="XMLID_922_" style="fill:#FFFFFF;" d="M274.176,472.549c0.233-0.122,0.351-0.386,0.351-0.792
					c0-0.441-0.113-0.87-0.339-1.296c-0.222-0.423-0.566-0.77-1.018-1.034c-0.454-0.27-0.997-0.403-1.629-0.403
					c-0.488,0-0.931,0.078-1.33,0.233c-0.401,0.156-0.735,0.38-1.007,0.674c-0.276,0.295-0.484,0.643-0.624,1.055
					c-0.144,0.41-0.217,0.855-0.217,1.333c0,1.017,0.292,1.823,0.87,2.418c0.577,0.593,1.385,0.888,2.429,0.888
					c0.453,0,0.857-0.06,1.207-0.179c0.349-0.117,0.639-0.268,0.874-0.446c0.232-0.182,0.405-0.368,0.522-0.566
					c0.112-0.195,0.167-0.365,0.167-0.512c0-0.167-0.048-0.293-0.152-0.386c-0.105-0.092-0.238-0.139-0.406-0.139
					c-0.152,0-0.271,0.038-0.355,0.109c-0.202,0.189-0.367,0.34-0.494,0.449c-0.127,0.113-0.264,0.217-0.415,0.312
					c-0.15,0.097-0.307,0.17-0.466,0.213c-0.16,0.048-0.336,0.069-0.531,0.069c-0.29,0-0.552-0.069-0.793-0.212
					c-0.24-0.145-0.431-0.356-0.578-0.635c-0.144-0.281-0.216-0.607-0.222-0.974h3.171
					C273.615,472.73,273.943,472.67,274.176,472.549z M270.021,471.809c0.054-0.546,0.213-0.957,0.472-1.236
					c0.259-0.28,0.591-0.417,0.995-0.417c0.426,0,0.764,0.136,1.025,0.412c0.26,0.273,0.407,0.688,0.446,1.241H270.021z"/>
				<path id="XMLID_919_" style="fill:#FFFFFF;" d="M280.916,472.549c0.231-0.122,0.351-0.386,0.351-0.792
					c0-0.441-0.116-0.87-0.34-1.296c-0.222-0.423-0.563-0.77-1.013-1.034c-0.46-0.27-1.003-0.403-1.633-0.403
					c-0.486,0-0.932,0.078-1.33,0.233c-0.401,0.156-0.737,0.38-1.009,0.674c-0.273,0.295-0.481,0.643-0.622,1.055
					c-0.145,0.41-0.217,0.855-0.217,1.333c0,1.017,0.29,1.823,0.868,2.418c0.58,0.593,1.387,0.888,2.429,0.888
					c0.453,0,0.86-0.06,1.208-0.179c0.347-0.117,0.641-0.268,0.872-0.446c0.234-0.182,0.408-0.368,0.519-0.566
					c0.116-0.195,0.171-0.365,0.171-0.512c0-0.167-0.047-0.293-0.15-0.386c-0.104-0.092-0.239-0.139-0.406-0.139
					c-0.151,0-0.27,0.038-0.355,0.109c-0.203,0.189-0.368,0.34-0.492,0.449c-0.128,0.113-0.264,0.217-0.415,0.312
					c-0.153,0.097-0.307,0.17-0.469,0.213c-0.157,0.048-0.336,0.069-0.528,0.069c-0.291,0-0.555-0.069-0.795-0.212
					c-0.238-0.145-0.431-0.356-0.575-0.635c-0.143-0.281-0.218-0.607-0.222-0.974h3.17
					C280.354,472.73,280.682,472.67,280.916,472.549z M276.762,471.809c0.053-0.546,0.211-0.957,0.469-1.236
					c0.261-0.28,0.592-0.417,0.995-0.417c0.425,0,0.763,0.136,1.026,0.412c0.257,0.273,0.407,0.688,0.447,1.241H276.762z"/>
				<path id="XMLID_390_" style="fill:#FFFFFF;" d="M286.926,469.434c-0.42-0.256-0.882-0.386-1.379-0.386
					c-0.415,0-0.79,0.089-1.114,0.267c-0.331,0.176-0.649,0.452-0.953,0.827v-0.195c0-0.296-0.071-0.519-0.218-0.677
					c-0.143-0.156-0.329-0.234-0.56-0.234c-0.233,0-0.418,0.078-0.553,0.228c-0.134,0.155-0.2,0.382-0.2,0.692v6.995
					c0,0.355,0.051,0.62,0.146,0.807c0.102,0.183,0.301,0.275,0.607,0.275c0.518,0,0.777-0.359,0.777-1.069v-2.433
					c0.287,0.358,0.586,0.634,0.901,0.816c0.314,0.187,0.704,0.279,1.165,0.279c0.385,0,0.741-0.076,1.079-0.227
					c0.334-0.153,0.622-0.372,0.868-0.654c0.245-0.283,0.441-0.632,0.58-1.05c0.14-0.419,0.21-0.878,0.21-1.376
					c0-0.677-0.122-1.261-0.366-1.758C287.675,470.069,287.346,469.693,286.926,469.434z M286.451,473.437
					c-0.137,0.313-0.32,0.546-0.552,0.704c-0.229,0.154-0.48,0.233-0.748,0.233c-0.454,0-0.828-0.179-1.133-0.536
					c-0.306-0.358-0.459-0.862-0.459-1.504c0-0.686,0.154-1.204,0.462-1.558c0.306-0.35,0.684-0.527,1.13-0.527
					c0.281,0,0.541,0.084,0.77,0.248c0.229,0.163,0.411,0.397,0.541,0.705c0.13,0.306,0.196,0.674,0.196,1.101
					C286.658,472.745,286.588,473.123,286.451,473.437z"/>
				<path id="XMLID_389_" style="fill:#FFFFFF;" d="M289.9,469.037c-0.238,0-0.428,0.079-0.58,0.245
					c-0.146,0.162-0.222,0.403-0.222,0.721v4.642c0,0.313,0.076,0.555,0.222,0.729c0.152,0.17,0.342,0.254,0.58,0.254
					c0.238,0,0.432-0.082,0.588-0.25c0.154-0.165,0.231-0.41,0.231-0.732v-4.688c0-0.287-0.078-0.513-0.231-0.675
					C290.332,469.116,290.138,469.037,289.9,469.037z"/>
				<path id="XMLID_388_" style="fill:#FFFFFF;" d="M289.917,466.696c-0.217,0-0.408,0.076-0.571,0.223
					c-0.166,0.149-0.248,0.339-0.248,0.568c0,0.253,0.081,0.447,0.242,0.586c0.159,0.138,0.35,0.209,0.577,0.209
					c0.22,0,0.408-0.071,0.566-0.209c0.157-0.14,0.236-0.335,0.236-0.585c0-0.257-0.082-0.454-0.244-0.591
					C290.314,466.763,290.13,466.696,289.917,466.696z"/>
				<path id="XMLID_387_" style="fill:#FFFFFF;" d="M297.258,474.066l-1.662-2.614l0.86-0.789c0.438-0.396,0.659-0.714,0.659-0.951
					c0-0.192-0.068-0.354-0.2-0.483c-0.139-0.128-0.306-0.193-0.51-0.193c-0.168,0-0.313,0.043-0.431,0.13
					c-0.121,0.086-0.29,0.251-0.517,0.486l-1.822,1.914v-3.933c0-0.329-0.075-0.582-0.221-0.751
					c-0.148-0.171-0.344-0.257-0.593-0.257c-0.255,0-0.456,0.093-0.596,0.283c-0.135,0.189-0.207,0.462-0.207,0.821v6.913
					c0,0.323,0.073,0.569,0.215,0.733c0.141,0.168,0.339,0.25,0.588,0.25c0.213,0,0.406-0.084,0.566-0.254
					c0.165-0.167,0.248-0.406,0.248-0.718v-1.291l0.88-0.83l1.427,2.353c0.181,0.278,0.329,0.471,0.436,0.58
					c0.106,0.109,0.26,0.16,0.458,0.16c0.226,0,0.413-0.073,0.553-0.221c0.142-0.151,0.214-0.352,0.214-0.61
					c0-0.089-0.029-0.19-0.082-0.289C297.469,474.406,297.379,474.262,297.258,474.066z"/>
				<path id="XMLID_386_" style="fill:#FFFFFF;" d="M299.45,473.84c-0.25,0-0.458,0.087-0.63,0.261
					c-0.17,0.173-0.256,0.381-0.256,0.622c0,0.287,0.09,0.51,0.268,0.665c0.179,0.159,0.389,0.238,0.634,0.238
					c0.237,0,0.444-0.079,0.624-0.241c0.174-0.157,0.264-0.379,0.264-0.662c0-0.243-0.089-0.454-0.264-0.626
					C299.909,473.927,299.698,473.84,299.45,473.84z"/>
				<path id="XMLID_385_" style="fill:#FFFFFF;" d="M306.835,472.914c-0.167,0-0.308,0.054-0.422,0.156
					c-0.113,0.104-0.219,0.245-0.318,0.427c-0.177,0.309-0.381,0.538-0.616,0.689c-0.231,0.15-0.509,0.225-0.835,0.225
					c-0.24,0-0.463-0.045-0.665-0.141c-0.201-0.093-0.372-0.229-0.516-0.409c-0.143-0.18-0.252-0.398-0.325-0.652
					c-0.075-0.256-0.114-0.537-0.114-0.842c0-0.646,0.147-1.161,0.439-1.533c0.294-0.375,0.682-0.561,1.158-0.561
					c0.333,0,0.607,0.075,0.821,0.227c0.219,0.148,0.424,0.375,0.622,0.674c0.109,0.158,0.209,0.269,0.299,0.339
					c0.09,0.068,0.201,0.104,0.338,0.104c0.202,0,0.377-0.068,0.524-0.203c0.143-0.135,0.214-0.3,0.214-0.492
					c0-0.192-0.063-0.397-0.192-0.617c-0.128-0.218-0.314-0.423-0.556-0.62c-0.245-0.192-0.54-0.352-0.89-0.474
					c-0.353-0.123-0.737-0.184-1.157-0.184c-0.674,0-1.26,0.139-1.747,0.419c-0.486,0.279-0.859,0.674-1.113,1.183
					c-0.259,0.511-0.387,1.098-0.387,1.765c0,0.981,0.281,1.764,0.841,2.349c0.562,0.582,1.344,0.876,2.348,0.876
					c0.469,0,0.893-0.065,1.269-0.192c0.377-0.126,0.688-0.295,0.934-0.502c0.249-0.207,0.434-0.425,0.553-0.656
					c0.121-0.229,0.182-0.446,0.182-0.646c0-0.169-0.066-0.331-0.198-0.481C307.198,472.99,307.033,472.914,306.835,472.914z"/>
				<path id="XMLID_382_" style="fill:#FFFFFF;" d="M313.647,469.95c-0.288-0.29-0.629-0.517-1.027-0.674
					c-0.4-0.161-0.846-0.239-1.336-0.239c-0.483,0-0.924,0.078-1.326,0.234c-0.399,0.158-0.737,0.38-1.019,0.669
					c-0.281,0.288-0.498,0.637-0.649,1.045c-0.146,0.408-0.224,0.858-0.224,1.349c0,0.485,0.076,0.929,0.219,1.332
					c0.152,0.401,0.369,0.75,0.657,1.048c0.285,0.292,0.627,0.521,1.016,0.676c0.392,0.159,0.835,0.239,1.326,0.239
					c0.492,0,0.937-0.08,1.336-0.234c0.394-0.158,0.735-0.382,1.02-0.675c0.286-0.291,0.502-0.641,0.656-1.05
					c0.146-0.408,0.222-0.855,0.222-1.336c0-0.489-0.075-0.932-0.221-1.339C314.148,470.593,313.933,470.246,313.647,469.95z
					 M312.455,473.866c-0.29,0.372-0.682,0.557-1.171,0.557c-0.324,0-0.605-0.086-0.846-0.253c-0.24-0.168-0.424-0.41-0.553-0.729
					c-0.129-0.317-0.193-0.684-0.193-1.108c0-0.428,0.066-0.803,0.197-1.125c0.131-0.321,0.314-0.563,0.556-0.727
					c0.242-0.164,0.522-0.246,0.84-0.246c0.489,0,0.881,0.182,1.171,0.555c0.289,0.367,0.436,0.881,0.436,1.543
					C312.891,472.984,312.744,473.496,312.455,473.866z"/>
				<path id="XMLID_381_" style="fill:#FFFFFF;" d="M323.569,469.31c-0.32-0.173-0.705-0.262-1.146-0.262
					c-0.381,0-0.726,0.081-1.039,0.241c-0.313,0.161-0.606,0.408-0.881,0.738c-0.192-0.326-0.431-0.572-0.725-0.735
					c-0.292-0.162-0.641-0.243-1.048-0.243c-0.394,0-0.747,0.079-1.07,0.241c-0.319,0.156-0.619,0.403-0.902,0.738v-0.153
					c0-0.261-0.074-0.466-0.222-0.616c-0.15-0.145-0.334-0.222-0.557-0.222c-0.227,0-0.412,0.078-0.555,0.239
					c-0.14,0.157-0.21,0.389-0.21,0.694v4.636c0,0.336,0.078,0.591,0.235,0.765c0.156,0.171,0.357,0.258,0.604,0.258
					c0.248,0,0.447-0.087,0.603-0.258c0.15-0.173,0.226-0.428,0.226-0.765v-2.188c0-0.684,0.086-1.206,0.253-1.566
					c0.168-0.369,0.516-0.55,1.048-0.55c0.264,0,0.459,0.072,0.582,0.22c0.121,0.142,0.198,0.331,0.226,0.552
					c0.027,0.226,0.04,0.544,0.04,0.953v2.581c0,0.341,0.078,0.594,0.232,0.767c0.148,0.17,0.349,0.255,0.594,0.255
					c0.254,0,0.455-0.085,0.611-0.255c0.156-0.173,0.231-0.426,0.231-0.767v-2.153c0-0.695,0.062-1.178,0.178-1.452
					c0.109-0.209,0.259-0.383,0.45-0.508c0.192-0.125,0.396-0.191,0.609-0.191c0.264,0,0.463,0.072,0.596,0.215
					c0.128,0.142,0.209,0.319,0.239,0.529c0.029,0.209,0.043,0.486,0.043,0.836v2.725c0,0.336,0.079,0.591,0.235,0.765
					c0.157,0.171,0.356,0.258,0.603,0.258c0.253,0,0.458-0.085,0.612-0.255c0.154-0.173,0.229-0.426,0.229-0.767v-3.163
					c0-0.629-0.068-1.09-0.206-1.385C324.128,469.734,323.888,469.484,323.569,469.31z"/>
			</g>
			<g id="XMLID_366_">
				<path id="XMLID_379_" style="fill:#FFFFFF;" d="M245.273,471.941c-0.001-0.004-0.001-0.006-0.001-0.011
					C245.272,471.935,245.272,471.937,245.273,471.941z"/>
				<path id="XMLID_378_" style="fill:#FFFFFF;" d="M245.355,472.458c0.001,0,0.001,0,0.001,0c-0.031-0.147-0.055-0.294-0.073-0.438
					C245.301,472.166,245.326,472.313,245.355,472.458z"/>
				<path id="XMLID_377_" style="fill:#FFFFFF;" d="M245.891,473.962c-0.004-0.006-0.007-0.013-0.01-0.021
					C245.885,473.949,245.888,473.956,245.891,473.962z"/>
				<path id="XMLID_376_" style="fill:#FFFFFF;" d="M245.84,473.862c-0.014-0.027-0.027-0.056-0.041-0.084
					C245.813,473.808,245.826,473.835,245.84,473.862z"/>
				<path id="XMLID_375_" style="fill:#FFFFFF;" d="M245.506,473.038c0.079,0.25,0.175,0.492,0.286,0.724
					c-0.113-0.236-0.206-0.479-0.284-0.724H245.506z"/>
				<path id="XMLID_374_" style="fill:#FFFFFF;" d="M250.736,465.178l-0.076-0.259c0.299-0.063,0.524-0.329,0.524-0.646
					c0-0.364-0.297-0.659-0.66-0.659c-0.365,0-0.66,0.295-0.66,0.659c0,0.317,0.225,0.583,0.522,0.646l0.084,0.289
					c-1.021,0.14-1.834,0.539-1.834,0.539l0.144,0.441c0.618-0.206,1.153-0.331,1.64-0.383c0.476-0.051,0.834-0.073,1.126-0.073
					c0.314,0,0.544,0.025,0.809,0.069l0.075-0.476C252.429,465.325,251.698,465.099,250.736,465.178z"/>
				<path id="XMLID_373_" style="fill:#FFFFFF;" d="M245.453,467.685c-0.017,0.024-0.497,0.465-0.876,1.28
					c-0.016-0.026-0.035-0.051-0.056-0.074c-0.113-0.124-0.272-0.187-0.474-0.184c-0.002,0-0.006,0-0.01,0
					c-0.125,0-0.21-0.042-0.266-0.092c0.056-0.071,0.089-0.161,0.089-0.258c0-0.231-0.187-0.419-0.419-0.419
					c-0.23,0-0.417,0.188-0.417,0.419c0,0.231,0.187,0.417,0.417,0.417c0.037,0,0.071-0.005,0.105-0.012
					c0.103,0.113,0.266,0.214,0.504,0.209c0.123-0.001,0.214,0.03,0.273,0.097c0.07,0.076,0.093,0.185,0.1,0.267
					c-0.001,0.002-0.001,0.004-0.002,0.004c-0.272,0.743-0.195,1.668-0.195,1.668l0.661,0.026c0.013-0.336,0.062-0.926,0.232-1.393
					c0.328-0.906,0.741-1.472,0.757-1.496l0.004-0.005c0.024-0.031,0.047-0.06,0.071-0.089l-0.196-0.142L245.453,467.685z"/>
				<path id="XMLID_372_" style="fill:#FFFFFF;" d="M257.293,466.284c-0.23,0-0.418,0.187-0.418,0.417
					c0,0.037,0.006,0.071,0.015,0.104c-0.115,0.104-0.214,0.267-0.211,0.507c0.002,0.123-0.03,0.212-0.096,0.273
					c-0.053,0.047-0.12,0.072-0.185,0.088c-0.492-0.689-1.097-1.109-1.097-1.109l-0.474,0.508c0.358,0.326,0.724,0.734,1.08,1.244
					c0.246,0.352,0.499,0.806,0.71,1.259l0.64-0.304c0,0-0.292-0.722-0.704-1.369c0.071-0.025,0.143-0.064,0.207-0.12
					c0.125-0.113,0.187-0.273,0.183-0.474c-0.001-0.13,0.041-0.218,0.093-0.276c0.071,0.054,0.16,0.089,0.257,0.089
					c0.232,0,0.419-0.187,0.419-0.419C257.712,466.471,257.525,466.284,257.293,466.284z"/>
				<path id="XMLID_371_" style="fill:#FFFFFF;" d="M255.633,472.034c-0.881,0.429-2.33,0.996-4.237,1.262
					c-0.749,0.104-1.474,0.142-2.143,0.142c-0.869,0-1.637-0.065-2.226-0.139c-0.673-0.085-1.198-0.189-1.52-0.261
					c0.078,0.245,0.171,0.488,0.284,0.724c0.002,0.006,0.005,0.013,0.008,0.017c0.013,0.027,0.027,0.056,0.041,0.084
					c0.013,0.027,0.027,0.054,0.041,0.079c0.004,0.007,0.007,0.015,0.01,0.021c0.189,0.357,0.417,0.684,0.675,0.968
					c0.9,0.984,1.816,1.139,1.825,1.141l0.015,0.002l0.013,0.005c0.009,0.003,0.821,0.265,2.056,0.265
					c1.216,0,2.409-0.245,3.546-0.729c0.842-0.431,1.639-1.085,2.033-1.668c0.305-0.452,0.526-0.934,0.656-1.434
					c0.07-0.266,0.125-0.693,0.092-1.141C256.555,471.539,256.163,471.776,255.633,472.034z"/>
				<path id="XMLID_367_" style="fill:#FFFFFF;" d="M252.322,466.152c-0.264-0.043-0.477-0.068-0.777-0.068
					c-0.279,0-0.626,0.022-1.089,0.071c-0.465,0.049-0.982,0.171-1.583,0.373c-0.842,0.282-1.604,0.724-2.204,1.28l-0.02,0.019
					c-0.089,0.081-0.275,0.254-0.488,0.526c-0.026,0.037-0.408,0.578-0.709,1.408c-0.226,0.622-0.216,1.527-0.216,1.537v0.002
					c0,0.212,0.012,0.423,0.036,0.632c0,0.005,0,0.007,0.001,0.011c0.002,0.027,0.007,0.052,0.01,0.079
					c0.018,0.144,0.043,0.291,0.074,0.438c0.438,0.112,3.048,0.721,5.966,0.314c1.829-0.254,3.218-0.795,4.061-1.204
					c0.701-0.34,1.151-0.647,1.325-0.774c-0.173-0.643-0.651-1.65-1.089-2.279C254.367,466.726,253.016,466.266,252.322,466.152z
					 M248.679,471.41c-0.971,0-1.759-0.787-1.759-1.759c0-0.972,0.788-1.761,1.759-1.761c0.973,0,1.76,0.788,1.76,1.761
					C250.439,470.624,249.652,471.41,248.679,471.41z M253.828,470.114c-0.601,0-1.089-0.489-1.089-1.09
					c0-0.602,0.488-1.089,1.089-1.089c0.601,0,1.089,0.487,1.089,1.089C254.918,469.625,254.429,470.114,253.828,470.114z"/>
			</g>
		</g>
	</g>
</g>
</svg>
